# xmcd
#
# Track frame offsets: 
#        150
#        16595
#        27172
#        46138
#        65074
#        85371
#        102630
#        117256
#        132102
#        151024
#        172628
#        182892
#
# Disc length: 2727 seconds
#
# Revision: 1
# Processed by: cddbd v1.5.2PL0 Copyright (c) Steve Scherf et al.
# Submitted via: ExactAudioCopy v1.0b3
#
DISCID=8d0aa50c
DTITLE=Heaton, Paul and Jacqui Abbott - What Have We Become
DYEAR=2014
DGENRE=Pop
TTITLE0=Moulding Of A Fool
TTITLE1=D.I.Y.
TTITLE2=Some Dancing To Do
TTITLE3=One Man's England
TTITLE4=What Have We Become
TTITLE5=The Snowman
TTITLE6=Costa Del Sombre
TTITLE7=The Right In Me
TTITLE8=When It Was Ours
TTITLE9=I Am Not A Muse
TTITLE10=Stupid Tears
TTITLE11=When I Get Back To Blighty
EXTD=
EXTT0=
EXTT1=
EXTT2=
EXTT3=
EXTT4=
EXTT5=
EXTT6=
EXTT7=
EXTT8=
EXTT9=
EXTT10=
EXTT11=
PLAYORDER=
